<?xml version="1.0" standalone="yes"?>

<svg version="1.1" viewBox="0.0 0.0 1208.4356955380576 593.007874015748" fill="none" stroke="none" stroke-linecap="square" stroke-miterlimit="10" xmlns="http://www.w3.org/2000/svg" xmlns:xlink="http://www.w3.org/1999/xlink"><clipPath id="p.0"><path d="m0 0l1208.4357 0l0 593.0079l-1208.4357 0l0 -593.0079z" clip-rule="nonzero"></path></clipPath><g clip-path="url(#p.0)"><path fill="#000000" fill-opacity="0.0" d="m0 0l1208.4357 0l0 593.0079l-1208.4357 0z" fill-rule="evenodd"></path><path fill="#000000" fill-opacity="0.0" d="m1074.3544 108.91338l-44.37805 0" fill-rule="evenodd"></path><path stroke="#000000" stroke-width="2.0" stroke-linejoin="round" stroke-linecap="butt" d="m1074.3544 108.91338l-44.37805 0" fill-rule="evenodd"></path><path fill="#ffffff" d="m87.244095 75.56956l89.00787 0l0 63.1811l-89.00787 0z" fill-rule="evenodd"></path><path stroke="#000000" stroke-width="2.0" stroke-linejoin="round" stroke-linecap="butt" d="m87.244095 75.56956l89.00787 0l0 63.1811l-89.00787 0z" fill-rule="evenodd"></path><path fill="#000000" d="m107.4199 125.23948l4.796875 -22.953125l2.609375 0l-0.484375 2.3125q1.453125 -1.515625 2.59375 -2.09375q1.15625 -0.59375 2.4375 -0.59375q2.375 0 3.9375 1.734375q1.5625 1.71875 1.5625 4.9375q0 2.59375 -0.859375 4.734375q-0.859375 2.125 -2.109375 3.421875q-1.25 1.296875 -2.53125 1.90625q-1.28125 0.609375 -2.625 0.609375q-2.984375 0 -4.625 -3.03125l-1.875 9.015625l-2.828125 0zm5.59375 -13.140625q0 1.859375 0.265625 2.578125q0.390625 1.015625 1.28125 1.640625q0.890625 0.625 2.0625 0.625q2.4375 0 3.9375 -2.734375q1.5 -2.75 1.5 -5.609375q0 -2.109375 -1.015625 -3.25q-1.0 -1.15625 -2.5 -1.15625q-1.078125 0 -2.0 0.578125q-0.921875 0.5625 -1.71875 1.703125q-0.78125 1.125 -1.296875 2.765625q-0.515625 1.640625 -0.515625 2.859375zm17.687508 13.515625q-2.453125 -5.375 -2.453125 -11.046875q0 -3.78125 0.984375 -7.03125q1.0 -3.265625 3.03125 -6.453125q1.34375 -2.125 4.296875 -5.5l2.203125 0q-1.828125 1.953125 -3.875 5.5q-2.03125 3.546875 -2.953125 6.96875q-0.921875 3.421875 -0.921875 6.875q0 5.15625 1.796875 10.6875l-2.109375 0zm13.171875 -9.03125l-0.46875 2.3125q-1.015625 0.265625 -1.96875 0.265625q-1.6875 0 -2.6875 -0.828125q-0.75 -0.625 -0.75 -1.703125q0 -0.546875 0.40625 -2.515625l2.015625 -9.640625l-2.234375 0l0.453125 -2.1875l2.234375 0l0.859375 -4.078125l3.234375 -1.953125l-1.265625 6.03125l2.78125 0l-0.46875 2.1875l-2.765625 0l-1.921875 9.171875q-0.359375 1.75 -0.359375 2.09375q0 0.5 0.28125 0.765625q0.296875 0.265625 0.953125 0.265625q0.9375 0 1.671875 -0.1875zm7.5625 -21.0q2.46875 5.375 2.46875 11.03125q0 3.796875 -1.0 7.046875q-0.984375 3.25 -3.015625 6.453125q-1.359375 2.125 -4.296875 5.5l-2.203125 0q1.8125 -1.96875 3.859375 -5.515625q2.046875 -3.546875 2.953125 -6.953125q0.921875 -3.421875 0.921875 -6.890625q0 -5.15625 -1.796875 -10.671875l2.109375 0z" fill-rule="nonzero"></path><path fill="#000000" fill-opacity="0.0" d="m0 108.514435l87.244095 -1.354332" fill-rule="evenodd"></path><path stroke="#000000" stroke-width="2.0" stroke-linejoin="round" stroke-linecap="butt" d="m0 108.514435l75.24554 -1.1680679" fill-rule="evenodd"></path><path fill="#000000" stroke="#000000" stroke-width="2.0" stroke-linecap="butt" d="m75.296814 110.64943l9.023827 -3.4439392l-9.126373 -3.1621933z" fill-rule="evenodd"></path><path fill="#000000" fill-opacity="0.0" d="m10.845144 7.889764l122.11024 0l0 66.74016l-122.11024 0z" fill-rule="evenodd"></path><path fill="#000000" d="m19.782644 56.56976l9.25 -10.796875l-5.296875 -10.46875l4.0 0l1.796875 3.78125q1.0 2.125 1.796875 4.078125l6.140627 -7.859375l4.421875 0l-8.9375 10.75l5.375 10.515625l-4.015625 0l-2.109375 -4.328125q-0.6875019 -1.375 -1.5468769 -3.421875l-6.328125 7.75l-4.546875 0z" fill-rule="nonzero"></path><path fill="#000000" d="m47.243584 72.069756l3.171875 -15.140625q-2.046875 1.625 -5.765625 2.59375l0.46875 -2.25q1.84375 -0.734375 3.640625 -1.921875q1.796875 -1.1875 2.703125 -2.078125q0.546875 -0.546875 1.03125 -1.328125l1.4375 0l-4.1875 20.125l-2.5 0z" fill-rule="nonzero"></path><path fill="#000000" d="m56.0951 64.60101l7.703125 -37.375004l8.0625 0l-0.578125 2.78125l-4.375 0l-6.65625 31.8125l4.421875 0l-0.578125 2.7812538l-8.0 0zm12.576035 -8.031254l4.453125 -21.265625l3.28125 0l-0.78125 3.703125q2.140625 -2.171875 4.0 -3.171875q1.859375 -1.0 3.796875 -1.0q2.59375 0 4.0625 1.40625q1.46875 1.390625 1.46875 3.734375q0 1.171875 -0.515625 3.71875l-2.703125 12.875l-3.625 0l2.828125 -13.46875q0.40625 -1.96875 0.40625 -2.90625q0 -1.0625 -0.734375 -1.71875q-0.71875 -0.671875 -2.109375 -0.671875q-2.78125 0 -4.953125 2.015625q-2.171875 2.0 -3.1875 6.859375l-2.0625 9.890625l-3.625 0zm27.234741 8.031254l-8.015625 0l0.578125 -2.7812538l4.4375 0l6.640625 -31.8125l-4.40625 0l0.578125 -2.78125l8.078125 0l-7.890625 37.375004z" fill-rule="nonzero"></path><path fill="#ffffff" d="m87.244095 182.36482l89.00787 0l0 63.181107l-89.00787 0z" fill-rule="evenodd"></path><path stroke="#000000" stroke-width="2.0" stroke-linejoin="round" stroke-linecap="butt" d="m87.244095 182.36482l89.00787 0l0 63.181107l-89.00787 0z" fill-rule="evenodd"></path><path fill="#000000" d="m107.4199 232.03476l4.796875 -22.953125l2.609375 0l-0.484375 2.3125q1.453125 -1.515625 2.59375 -2.09375q1.15625 -0.59375 2.4375 -0.59375q2.375 0 3.9375 1.734375q1.5625 1.71875 1.5625 4.9375q0 2.59375 -0.859375 4.734375q-0.859375 2.125 -2.109375 3.421875q-1.25 1.296875 -2.53125 1.90625q-1.28125 0.609375 -2.625 0.609375q-2.984375 0 -4.625 -3.03125l-1.875 9.015625l-2.828125 0zm5.59375 -13.140625q0 1.859375 0.265625 2.578125q0.390625 1.015625 1.28125 1.640625q0.890625 0.625 2.0625 0.625q2.4375 0 3.9375 -2.734375q1.5 -2.75 1.5 -5.609375q0 -2.109375 -1.015625 -3.25q-1.0 -1.15625 -2.5 -1.15625q-1.078125 0 -2.0 0.578125q-0.921875 0.5625 -1.71875 1.703125q-0.78125 1.125 -1.296875 2.765625q-0.515625 1.640625 -0.515625 2.859375zm17.687508 13.515625q-2.453125 -5.375 -2.453125 -11.046875q0 -3.78125 0.984375 -7.03125q1.0 -3.265625 3.03125 -6.453125q1.34375 -2.125 4.296875 -5.5l2.203125 0q-1.828125 1.953125 -3.875 5.5q-2.03125 3.546875 -2.953125 6.96875q-0.921875 3.421875 -0.921875 6.875q0 5.15625 1.796875 10.6875l-2.109375 0zm13.171875 -9.03125l-0.46875 2.3125q-1.015625 0.265625 -1.96875 0.265625q-1.6875 0 -2.6875 -0.828125q-0.75 -0.625 -0.75 -1.703125q0 -0.546875 0.40625 -2.515625l2.015625 -9.640625l-2.234375 0l0.453125 -2.1875l2.234375 0l0.859375 -4.078125l3.234375 -1.953125l-1.265625 6.03125l2.78125 0l-0.46875 2.1875l-2.765625 0l-1.921875 9.171875q-0.359375 1.75 -0.359375 2.09375q0 0.5 0.28125 0.765625q0.296875 0.265625 0.953125 0.265625q0.9375 0 1.671875 -0.1875zm7.5625 -21.0q2.46875 5.375 2.46875 11.03125q0 3.796875 -1.0 7.046875q-0.984375 3.25 -3.015625 6.453125q-1.359375 2.125 -4.296875 5.5l-2.203125 0q1.8125 -1.96875 3.859375 -5.515625q2.046875 -3.546875 2.953125 -6.953125q0.921875 -3.421875 0.921875 -6.890625q0 -5.15625 -1.796875 -10.671875l2.109375 0z" fill-rule="nonzero"></path><path fill="#000000" fill-opacity="0.0" d="m0 215.30971l87.244095 -1.3543243" fill-rule="evenodd"></path><path stroke="#000000" stroke-width="2.0" stroke-linejoin="round" stroke-linecap="butt" d="m0 215.30971l75.24554 -1.1680756" fill-rule="evenodd"></path><path fill="#000000" stroke="#000000" stroke-width="2.0" stroke-linecap="butt" d="m75.296814 217.4447l9.023827 -3.4439392l-9.126373 -3.1621857z" fill-rule="evenodd"></path><path fill="#ffffff" d="m238.26532 107.1601l0 0c0 -16.255432 11.661743 -29.433067 26.047241 -29.433067l0 0c6.9081726 0 13.533386 3.100975 18.418182 8.620743c4.884796 5.5197754 7.629059 13.006195 7.629059 20.812325l0 0c0 16.25544 -11.661743 29.433067 -26.047241 29.433067l0 0c-14.385498 0 -26.047241 -13.177628 -26.047241 -29.433067z" fill-rule="evenodd"></path><path stroke="#000000" stroke-width="2.0" stroke-linejoin="round" stroke-linecap="butt" d="m238.26532 107.1601l0 0c0 -16.255432 11.661743 -29.433067 26.047241 -29.433067l0 0c6.9081726 0 13.533386 3.100975 18.418182 8.620743c4.884796 5.5197754 7.629059 13.006195 7.629059 20.812325l0 0c0 16.25544 -11.661743 29.433067 -26.047241 29.433067l0 0c-14.385498 0 -26.047241 -13.177628 -26.047241 -29.433067z" fill-rule="evenodd"></path><path fill="#000000" d="m262.91 115.17698l0 -6.28125l-6.234375 0l0 -2.625l6.234375 0l0 -6.234375l2.65625 0l0 6.234375l6.234375 0l0 2.625l-6.234375 0l0 6.28125l-2.65625 0z" fill-rule="nonzero"></path><path fill="#000000" fill-opacity="0.0" d="m176.25197 107.1601l62.015747 0" fill-rule="evenodd"></path><path stroke="#000000" stroke-width="2.0" stroke-linejoin="round" stroke-linecap="butt" d="m176.25197 107.1601l50.015747 0" fill-rule="evenodd"></path><path fill="#000000" stroke="#000000" stroke-width="2.0" stroke-linecap="butt" d="m226.26772 110.46357l9.076202 -3.3034668l-9.076202 -3.3034592z" fill-rule="evenodd"></path><path fill="#ffffff" d="m207.61942 178.2454l113.38583 0l0 71.433075l-113.38583 0z" fill-rule="evenodd"></path><path stroke="#000000" stroke-width="2.0" stroke-linejoin="round" stroke-linecap="butt" d="m207.61942 178.2454l113.38583 0l0 71.433075l-113.38583 0z" fill-rule="evenodd"></path><path fill="#000000" d="m238.41086 220.0413l2.75 0.28125q-0.59375 2.046875 -2.734375 3.890625q-2.125 1.84375 -5.078125 1.84375q-1.84375 0 -3.390625 -0.84375q-1.53125 -0.859375 -2.34375 -2.484375q-0.796875 -1.625 -0.796875 -3.703125q0 -2.71875 1.25 -5.265625q1.265625 -2.5625 3.265625 -3.796875q2.0 -1.25 4.328125 -1.25q2.96875 0 4.734375 1.84375q1.78125 1.84375 1.78125 5.03125q0 1.21875 -0.21875 2.5l-12.21875 0q-0.0625 0.484375 -0.0625 0.875q0 2.328125 1.0625 3.5625q1.078125 1.21875 2.625 1.21875q1.453125 0 2.859375 -0.953125q1.40625 -0.953125 2.1875 -2.75zm-8.21875 -4.109375l9.3125 0q0.015625 -0.4375 0.015625 -0.625q0 -2.125 -1.0625 -3.25q-1.0625 -1.140625 -2.734375 -1.140625q-1.8125 0 -3.3125 1.25q-1.484375 1.25 -2.21875 3.765625z" fill-rule="nonzero"></path><path fill="#000000" d="m244.19211 213.68193q0.28125 -1.34375 0.78125 -2.25q0.515625 -0.90625 1.359375 -1.71875q0.84375 -0.8125 3.234375 -2.734375q1.453125 -1.15625 2.0 -1.71875q0.765625 -0.796875 1.109375 -1.5625q0.234375 -0.53125 0.234375 -1.140625q0 -1.03125 -0.734375 -1.75q-0.734375 -0.734375 -1.796875 -0.734375q-1.046875 0 -1.84375 0.734375q-0.796875 0.734375 -1.125 2.359375l-1.8125 -0.265625q0.265625 -2.0 1.546875 -3.15625q1.28125 -1.15625 3.203125 -1.15625q1.28125 0 2.3125 0.53125q1.046875 0.53125 1.5625 1.5q0.53125 0.96875 0.53125 1.984375q0 1.5 -1.0625 2.890625q-0.65625 0.859375 -3.859375 3.390625q-1.375 1.078125 -2.046875 1.78125q-0.671875 0.703125 -1.0 1.3125l6.71875 0l-0.359375 1.703125l-8.953125 0zm12.705444 -10.890625l12.890625 0l-0.3125 1.546875l-2.375 0l-1.96875 9.34375l-1.859375 0l1.96875 -9.34375l-4.421875 0l-1.953125 9.34375l-1.859375 0l1.953125 -9.34375l-2.375 0l0.3125 -1.546875zm12.9288025 10.890625l3.140625 -15.03125l1.859375 0l-1.953125 9.3125l5.40625 -5.171875l2.453125 0l-4.640625 4.0625l2.8125 6.828125l-2.03125 0l-2.171875 -5.59375l-2.265625 1.953125l-0.75 3.640625l-1.859375 0zm13.2734375 -12.9375l0.453125 -2.09375l1.828125 0l-0.4375 2.09375l-1.84375 0zm-5.875 17.03125l0.328125 -1.578125q0.640625 0.171875 1.125 0.171875q0.59375 0 0.953125 -0.40625q0.359375 -0.390625 0.734375 -2.171875l2.28125 -11.0l1.859375 0l-2.359375 11.328125q-0.4375 2.125 -1.015625 2.890625q-0.765625 1.03125 -2.140625 1.03125q-0.71875 0 -1.765625 -0.265625zm6.222809 -3.84375l8.078125 -15.53125l1.609375 0l-8.078125 15.53125l-1.609375 0zm11.753754 -0.25l2.78125 -13.3125l-4.9375 0l0.359375 -1.71875l11.84375 0l-0.359375 1.71875l-4.890625 0l-2.78125 13.3125l-2.015625 0z" fill-rule="nonzero"></path><path fill="#000000" fill-opacity="0.0" d="m176.25197 213.95538l31.370071 0" fill-rule="evenodd"></path><path stroke="#000000" stroke-width="2.0" stroke-linejoin="round" stroke-linecap="butt" d="m176.25197 213.95538l19.370071 0" fill-rule="evenodd"></path><path fill="#000000" stroke="#000000" stroke-width="2.0" stroke-linecap="butt" d="m195.62206 217.25885l9.076187 -3.3034668l-9.076187 -3.3034668z" fill-rule="evenodd"></path><path fill="#000000" fill-opacity="0.0" d="m264.31235 178.2454l0 -41.637802" fill-rule="evenodd"></path><path stroke="#000000" stroke-width="2.0" stroke-linejoin="round" stroke-linecap="butt" d="m264.31235 178.2454l0 -29.637802" fill-rule="evenodd"></path><path fill="#000000" stroke="#000000" stroke-width="2.0" stroke-linecap="butt" d="m267.6158 148.6076l-3.3034668 -9.076187l-3.3034668 9.076187z" fill-rule="evenodd"></path><path fill="#000000" fill-opacity="0.0" d="m290.3598 107.1601l56.37796 0" fill-rule="evenodd"></path><path stroke="#000000" stroke-width="2.0" stroke-linejoin="round" stroke-linecap="butt" d="m290.3598 107.1601l56.37796 0" fill-rule="evenodd"></path><path fill="#000000" fill-opacity="0.0" d="m346.73752 108.456696l0 -62.078743" fill-rule="evenodd"></path><path stroke="#000000" stroke-width="2.0" stroke-linejoin="round" stroke-linecap="butt" d="m346.73752 108.456696l0 -62.078743" fill-rule="evenodd"></path><path fill="#ffffff" d="m360.57874 46.377953l-13.842529 23.937012l-13.842499 -23.937012z" fill-rule="evenodd"></path><path stroke="#000000" stroke-width="2.0" stroke-linejoin="round" stroke-linecap="butt" d="m360.57874 46.377953l-13.842529 23.937012l-13.842499 -23.937012z" fill-rule="evenodd"></path><path fill="#ffffff" d="m954.5381 74.69292l89.00781 0l0 63.18109l-89.00781 0z" fill-rule="evenodd"></path><path stroke="#000000" stroke-width="2.0" stroke-linejoin="round" stroke-linecap="butt" d="m954.5381 74.69292l89.00781 0l0 63.18109l-89.00781 0z" fill-rule="evenodd"></path><path fill="#000000" d="m977.91583 101.03471l-1.171875 2.734375q-2.0625 0.421875 -3.34375 2.59375q-1.265625 2.171875 -1.265625 4.671875q0 1.984375 1.109375 3.25q1.109375 1.265625 2.8125 1.625l1.640625 -7.71875q0.5625 -2.671875 1.15625 -4.0625q0.59375 -1.390625 1.6875 -2.234375q1.109375 -0.859375 2.484375 -0.859375q1.984375 0 3.5 1.75q1.53125 1.734375 1.53125 4.859375q0 3.140625 -1.5 5.71875q-1.5 2.578125 -3.375 3.671875q-1.859375 1.078125 -4.84375 1.34375l-1.234375 5.984375l-2.828125 0l1.234375 -5.984375q-2.96875 -0.4375 -4.59375 -2.59375q-1.609375 -2.15625 -1.609375 -5.046875q0 -3.703125 2.4375 -6.65625q2.453125 -2.96875 6.171875 -3.046875zm0.9375 14.859375q3.109375 -0.421875 4.8125 -2.953125q1.703125 -2.53125 1.703125 -5.671875q0 -1.921875 -0.609375 -2.90625q-0.59375 -1.0 -1.578125 -1.0q-1.0 0 -1.53125 0.96875q-0.53125 0.96875 -1.109375 3.71875l-1.6875 7.84375z" fill-rule="nonzero"></path><path fill="#000000" d="m993.5096 130.00346l2.375 -11.34375q-1.546875 1.203125 -4.328125 1.9375l0.34375 -1.6875q1.390625 -0.5625 2.734375 -1.453125q1.34375 -0.890625 2.03125 -1.546875q0.40625 -0.421875 0.78125 -1.0l1.0625 0l-3.140625 15.09375l-1.859375 0z" fill-rule="nonzero"></path><path fill="#000000" d="m1005.465 124.73784q-2.453125 -5.375 -2.453125 -11.046875q0 -3.78125 0.984375 -7.03125q1.0 -3.265625 3.03125 -6.453125q1.34375 -2.125 4.296875 -5.5l2.203125 0q-1.828125 1.953125 -3.875 5.5q-2.03125 3.546875 -2.953125 6.96875q-0.921875 3.421875 -0.921875 6.875q0 5.15625 1.796875 10.6875l-2.109375 0zm13.171875 -9.03125l-0.46875 2.3125q-1.015625 0.265625 -1.96875 0.265625q-1.6875 0 -2.6875 -0.828125q-0.75 -0.625 -0.75 -1.703125q0 -0.546875 0.40625 -2.515625l2.015625 -9.640625l-2.234375 0l0.453125 -2.1875l2.234375 0l0.859375 -4.078125l3.234375 -1.953125l-1.265625 6.03125l2.78125 0l-0.46875 2.1875l-2.765625 0l-1.921875 9.171875q-0.359375 1.75 -0.359375 2.09375q0 0.5 0.28125 0.765625q0.296875 0.265625 0.953125 0.265625q0.9375 0 1.671875 -0.1875zm7.562561 -21.0q2.46875 5.375 2.46875 11.03125q0 3.796875 -1.0 7.046875q-0.984375 3.25 -3.015625 6.453125q-1.359436 2.125 -4.296936 5.5l-2.203125 0q1.8125 -1.96875 3.859375 -5.515625q2.046936 -3.546875 2.953186 -6.953125q0.921875 -3.421875 0.921875 -6.890625q0 -5.15625 -1.796875 -10.671875l2.109375 0z" fill-rule="nonzero"></path><path fill="#ffffff" d="m702.4068 178.23885l137.25989 0l0 71.433075l-137.25989 0z" fill-rule="evenodd"></path><path stroke="#000000" stroke-width="2.0" stroke-linejoin="round" stroke-linecap="butt" d="m702.4068 178.23885l137.25989 0l0 71.433075l-137.25989 0z" fill-rule="evenodd"></path><path fill="#000000" d="m720.6227 206.67538l12.984375 -22.90625l3.609375 0l3.78125 22.90625l-2.96875 0l-1.109375 -6.59375l-9.265625 0l-3.671875 6.59375l-3.359375 0zm8.34375 -8.953125l7.578125 0l-0.890625 -5.75q-0.515625 -3.421875 -0.640625 -5.703125q-0.78125 1.96875 -2.28125 4.671875l-3.765625 6.78125zm19.046875 8.953125l-1.40625 -22.90625l3.109375 0l0.53125 11.328125q0.046875 0.8125 0.15625 4.40625q0.03125 1.0 0.03125 1.40625q0 0.265625 -0.015625 1.546875q1.90625 -3.90625 2.75 -5.5l6.96875 -13.1875l3.15625 0l0.765625 13.390625q0.125 2.296875 0.171875 5.53125q0.28125 -0.796875 1.0 -2.375q1.140625 -2.546875 1.6875 -3.640625l6.53125 -12.90625l3.125 0l-11.65625 22.90625l-3.28125 0l-0.765625 -13.875q-0.109375 -1.78125 -0.171875 -4.375q-0.953125 2.171875 -1.59375 3.375l-7.9375 14.875l-3.15625 0zm37.90625 -9.03125l0.546875 -2.59375l10.03125 0l-1.953125 9.328125q-1.890625 1.1875 -4.3125 1.9375q-2.421875 0.75 -4.765625 0.75q-5.0 0 -7.46875 -3.015625q-2.078125 -2.546875 -2.078125 -6.546875q0 -4.125 1.8125 -7.5q1.828125 -3.390625 4.59375 -5.0q2.78125 -1.625 6.171875 -1.625q2.4375 0 4.375 0.890625q1.9375 0.875 2.96875 2.359375q1.03125 1.46875 1.484375 3.84375l-3.0 0.328125q-0.484375 -2.359375 -2.015625 -3.609375q-1.515625 -1.265625 -3.90625 -1.265625q-2.484375 0 -4.640625 1.359375q-2.15625 1.34375 -3.453125 4.078125q-1.28125 2.71875 -1.28125 6.1875q0 3.453125 1.703125 5.21875q1.703125 1.765625 4.703125 1.765625q2.984375 0 6.421875 -1.96875l1.03125 -4.921875l-6.96875 0zm13.34375 9.03125l4.796875 -22.90625l2.96875 0l3.859375 8.59375q1.765625 3.9375 2.796875 6.625q0.59375 1.5625 1.375 4.21875q0.421875 -2.890625 1.0625 -5.96875l2.8125 -13.46875l2.984375 0l-4.78125 22.90625l-3.03125 0l-5.6875 -13.234375q-1.515625 -3.5 -2.359375 -6.171875q-0.234375 2.234375 -0.90625 5.484375l-2.90625 13.921875l-2.984375 0z" fill-rule="nonzero"></path><path fill="#000000" d="m722.59143 237.26913l3.0 -0.28125l-0.03125 0.796875q0 1.328125 0.609375 2.4375q0.609375 1.09375 2.015625 1.703125q1.40625 0.59375 3.34375 0.59375q2.75 0 4.1875 -1.203125q1.453125 -1.203125 1.453125 -2.75q0 -1.078125 -0.765625 -1.96875q-0.78125 -0.875 -4.265625 -2.375q-2.703125 -1.171875 -3.6875 -1.796875q-1.546875 -1.015625 -2.28125 -2.203125q-0.734375 -1.203125 -0.734375 -2.734375q0 -1.765625 0.96875 -3.1875q0.96875 -1.421875 2.828125 -2.171875q1.875 -0.75 4.21875 -0.75q2.796875 0 4.71875 0.9375q1.921875 0.9375 2.78125 2.5q0.875 1.5625 0.875 2.984375q0 0.140625 -0.015625 0.46875l-2.953125 0.234375q0 -0.96875 -0.171875 -1.515625q-0.3125 -0.953125 -0.96875 -1.609375q-0.65625 -0.65625 -1.8125 -1.046875q-1.140625 -0.40625 -2.5625 -0.40625q-2.5 0 -3.890625 1.125q-1.0625 0.859375 -1.0625 2.28125q0 0.84375 0.4375 1.515625q0.4375 0.65625 1.578125 1.296875q0.8125 0.453125 3.859375 1.796875q2.46875 1.09375 3.40625 1.71875q1.25 0.828125 1.921875 2.015625q0.671875 1.171875 0.671875 2.671875q0 1.859375 -1.140625 3.4375q-1.125 1.5625 -3.125 2.421875q-2.0 0.859375 -4.578125 0.859375q-3.890625 0 -6.359375 -1.6875q-2.453125 -1.703125 -2.46875 -6.109375zm20.65625 1.109375q0 -4.859375 2.859375 -8.046875q2.359375 -2.625 6.1875 -2.625q3.0 0 4.828125 1.875q1.84375 1.875 1.84375 5.0625q0 2.859375 -1.15625 5.328125q-1.15625 2.453125 -3.296875 3.765625q-2.125 1.3125 -4.484375 1.3125q-1.9375 0 -3.53125 -0.828125q-1.578125 -0.828125 -2.421875 -2.34375q-0.828125 -1.515625 -0.828125 -3.5zm2.828125 -0.28125q0 2.34375 1.125 3.5625q1.125 1.203125 2.859375 1.203125q0.90625 0 1.796875 -0.359375q0.890625 -0.375 1.65625 -1.125q0.765625 -0.75 1.296875 -1.703125q0.546875 -0.96875 0.875 -2.078125q0.484375 -1.546875 0.484375 -2.96875q0 -2.25 -1.140625 -3.484375q-1.125 -1.25 -2.84375 -1.25q-1.328125 0 -2.421875 0.640625q-1.09375 0.625 -1.984375 1.84375q-0.875 1.21875 -1.296875 2.84375q-0.40625 1.609375 -0.40625 2.875zm25.796875 3.578125q-2.984375 3.375 -6.109375 3.375q-1.921875 0 -3.109375 -1.09375q-1.171875 -1.109375 -1.171875 -2.703125q0 -1.046875 0.53125 -3.59375l2.0 -9.578125l2.828125 0l-2.21875 10.609375q-0.28125 1.328125 -0.28125 2.0625q0 0.9375 0.5625 1.46875q0.578125 0.515625 1.6875 0.515625q1.1875 0 2.3125 -0.578125q1.140625 -0.578125 1.953125 -1.5625q0.828125 -0.984375 1.34375 -2.328125q0.34375 -0.859375 0.796875 -3.015625l1.5 -7.171875l2.828125 0l-3.46875 16.59375l-2.609375 0l0.625 -3.0zm6.46875 3.0l3.46875 -16.59375l2.5 0l-0.703125 3.390625q1.28125 -1.921875 2.5 -2.84375q1.234375 -0.921875 2.515625 -0.921875q0.84375 0 2.078125 0.609375l-1.15625 2.625q-0.734375 -0.53125 -1.609375 -0.53125q-1.484375 0 -3.046875 1.65625q-1.5625 1.65625 -2.453125 5.953125l-1.40625 6.65625l-2.6875 0zm22.109375 -6.046875l2.828125 0.296875q-1.0625 3.109375 -3.03125 4.625q-1.953125 1.5 -4.453125 1.5q-2.703125 0 -4.390625 -1.75q-1.671875 -1.75 -1.671875 -4.890625q0 -2.71875 1.078125 -5.34375q1.078125 -2.625 3.078125 -3.984375q2.015625 -1.375 4.59375 -1.375q2.671875 0 4.234375 1.515625q1.5625 1.5 1.5625 3.984375l-2.78125 0.1875q-0.015625 -1.578125 -0.921875 -2.46875q-0.890625 -0.890625 -2.359375 -0.890625q-1.703125 0 -2.953125 1.078125q-1.25 1.078125 -1.96875 3.28125q-0.703125 2.1875 -0.703125 4.21875q0 2.125 0.9375 3.1875q0.9375 1.0625 2.3125 1.0625q1.375 0 2.625 -1.046875q1.265625 -1.046875 1.984375 -3.1875zm16.734375 0.40625l2.75 0.28125q-0.59375 2.046875 -2.734375 3.890625q-2.125 1.84375 -5.078125 1.84375q-1.84375 0 -3.390625 -0.84375q-1.53125 -0.859375 -2.34375 -2.484375q-0.796875 -1.625 -0.796875 -3.703125q0 -2.71875 1.25 -5.265625q1.265625 -2.5625 3.265625 -3.796875q2.0 -1.25 4.328125 -1.25q2.96875 0 4.734375 1.84375q1.78125 1.84375 1.78125 5.03125q0 1.21875 -0.21875 2.5l-12.21875 0q-0.0625 0.484375 -0.0625 0.875q0 2.328125 1.0625 3.5625q1.078125 1.21875 2.625 1.21875q1.453125 0 2.859375 -0.953125q1.40625 -0.953125 2.1875 -2.75zm-8.21875 -4.109375l9.3125 0q0.015625 -0.4375 0.015625 -0.625q0 -2.125 -1.0625 -3.25q-1.0625 -1.140625 -2.734375 -1.140625q-1.8125 0 -3.3125 1.25q-1.484375 1.25 -2.21875 3.765625z" fill-rule="nonzero"></path><path fill="#000000" fill-opacity="0.0" d="m676.67346 107.84777l68.31494 -0.28346252" fill-rule="evenodd"></path><path stroke="#000000" stroke-width="2.0" stroke-linejoin="round" stroke-linecap="butt" d="m676.67346 107.84777l56.315002 -0.23366547" fill-rule="evenodd"></path><path fill="#000000" stroke="#000000" stroke-width="2.0" stroke-linecap="butt" d="m733.00214 110.917534l9.062439 -3.341095l-9.089844 -3.2657776z" fill-rule="evenodd"></path><path fill="#000000" fill-opacity="0.0" d="m775.4199 107.826775l179.11816 -1.5433121" fill-rule="evenodd"></path><path stroke="#000000" stroke-width="2.0" stroke-linejoin="round" stroke-linecap="butt" d="m775.4199 107.826775l167.11853 -1.4399261" fill-rule="evenodd"></path><path fill="#000000" stroke="#000000" stroke-width="2.0" stroke-linecap="butt" d="m942.56696 109.69019l9.047424 -3.3815384l-9.104309 -3.2251434z" fill-rule="evenodd"></path><path fill="#000000" fill-opacity="0.0" d="m771.03674 178.23885l0 -41.228348" fill-rule="evenodd"></path><path stroke="#000000" stroke-width="2.0" stroke-linejoin="round" stroke-linecap="butt" d="m771.03674 178.23885l0 -29.228348" fill-rule="evenodd"></path><path fill="#000000" stroke="#000000" stroke-width="2.0" stroke-linecap="butt" d="m774.3402 149.0105l-3.3034668 -9.076202l-3.3034668 9.076202z" fill-rule="evenodd"></path><path fill="#000000" fill-opacity="0.0" d="m676.0551 108.456696l0 -62.078743" fill-rule="evenodd"></path><path stroke="#000000" stroke-width="2.0" stroke-linejoin="round" stroke-linecap="butt" d="m676.0551 108.456696l0 -62.078743" fill-rule="evenodd"></path><path fill="#ffffff" d="m689.89764 46.377953l-13.842529 23.937012l-13.842529 -23.937012z" fill-rule="evenodd"></path><path stroke="#000000" stroke-width="2.0" stroke-linejoin="round" stroke-linecap="butt" d="m689.89764 46.377953l-13.842529 23.937012l-13.842529 -23.937012z" fill-rule="evenodd"></path><path fill="#000000" fill-opacity="0.0" d="m1074.3464 108.00525l32.944946 -32.031494" fill-rule="evenodd"></path><path stroke="#000000" stroke-width="2.0" stroke-linejoin="round" stroke-linecap="butt" d="m1074.3464 108.00525l24.341187 -23.66632" fill-rule="evenodd"></path><path fill="#000000" stroke="#000000" stroke-width="2.0" stroke-linecap="butt" d="m1100.9905 86.707436l4.20459 -8.695503l-8.810303 3.9584885z" fill-rule="evenodd"></path><path fill="#000000" fill-opacity="0.0" d="m1116.1837 108.00525l94.36218 -0.88188934" fill-rule="evenodd"></path><path stroke="#000000" stroke-width="2.0" stroke-linejoin="round" stroke-linecap="butt" d="m1116.1837 108.00525l82.36267 -0.7697449" fill-rule="evenodd"></path><path fill="#000000" stroke="#000000" stroke-width="2.0" stroke-linecap="butt" d="m1198.5773 110.538826l9.045044 -3.3881454l-9.106689 -3.2184982z" fill-rule="evenodd"></path><path fill="#000000" fill-opacity="0.0" d="m1052.4987 101.34908l122.11023 0l0 35.149605l-122.11023 0z" fill-rule="evenodd"></path><path fill="#000000" d="m1067.4987 132.87221l-0.375 1.8125q-0.796875 0.203125 -1.53125 0.203125q-1.328125 0 -2.109375 -0.640625q-0.578125 -0.5 -0.578125 -1.34375q0 -0.421875 0.3125 -1.953125l1.578125 -7.53125l-1.75 0l0.359375 -1.71875l1.75 0l0.671875 -3.1875l2.515625 -1.515625l-0.984375 4.703125l2.171875 0l-0.359375 1.71875l-2.171875 0l-1.5 7.15625q-0.28125 1.375 -0.28125 1.640625q0 0.390625 0.21875 0.609375q0.234375 0.203125 0.75 0.203125q0.734375 0 1.3125 -0.15625zm22.136475 -8.71875l-11.8125 0l0 -2.0625l11.8125 0l0 2.0625zm0 5.421875l-11.8125 0l0 -2.046875l11.8125 0l0 2.046875zm8.593872 5.09375l2.71875 -12.96875l2.0 0l-0.484375 2.265625q1.3125 -1.328125 2.4375 -1.9375q1.140625 -0.609375 2.328125 -0.609375q1.578125 0 2.46875 0.859375q0.90625 0.84375 0.90625 2.265625q0 0.71875 -0.328125 2.28125l-1.640625 7.84375l-2.21875 0l1.734375 -8.21875q0.25 -1.1875 0.25 -1.765625q0 -0.640625 -0.453125 -1.046875q-0.4375 -0.40625 -1.28125 -0.40625q-1.703125 0 -3.03125 1.21875q-1.3125 1.21875 -1.9375 4.1875l-1.25 6.03125l-2.21875 0zm14.117554 0l3.75 -17.890625l2.1875 0l-2.3125 11.09375l6.4375 -6.171875l2.921875 0l-5.53125 4.84375l3.34375 8.125l-2.421875 0l-2.578125 -6.65625l-2.6875 2.328125l-0.90625 4.328125l-2.203125 0zm10.5390625 0.296875l9.609375 -18.5l1.921875 0l-9.625 18.5l-1.90625 0zm13.974365 -0.296875l3.3125 -15.859375l-5.875 0l0.4375 -2.03125l14.078125 0l-0.421875 2.03125l-5.828125 0l-3.3125 15.859375l-2.390625 0z" fill-rule="nonzero"></path><path fill="#000000" fill-opacity="0.0" d="m801.6273 24.976377l122.11023 0l0 66.74016l-122.11023 0z" fill-rule="evenodd"></path><path fill="#000000" d="m811.9867 73.65637l4.453125 -21.265621l3.203125 0l-0.90625 4.34375q1.640625 -2.453125 3.203125 -3.625q1.578125 -1.1875 3.21875 -1.1875q1.078125 0 2.671875 0.78125l-1.484375 3.359375q-0.9375 -0.6875 -2.0625 -0.6875q-1.90625 0 -3.90625 2.125q-2.0 2.125 -3.140625 7.624996l-1.796875 8.53125l-3.453125 0zm19.012573 8.625q-3.140625 -6.890625 -3.140625 -14.15625q0 -4.843746 1.265625 -9.015621q1.265625 -4.171875 3.875 -8.25q1.71875 -2.734375 5.5 -7.046875l2.828125 0q-2.34375 2.5 -4.953125 7.046875q-2.609375 4.53125 -3.796875 8.921875q-1.1875 4.390621 -1.1875 8.812496q0 6.609375 2.3125 13.6875l-2.703125 0zm16.981323 -11.5625l-0.59375 2.953125q-1.3125 0.34375 -2.53125 0.34375q-2.15625 0 -3.4375 -1.0625q-0.96875 -0.796875 -0.96875 -2.1875q0 -0.6875 0.53125 -3.21875l2.578125 -12.343746l-2.859375 0l0.578125 -2.8125l2.859375 0l1.109375 -5.21875l4.140625 -2.5l-1.625 7.71875l3.5625 0l-0.59375 2.8125l-3.546875 0l-2.46875 11.749996q-0.453125 2.234375 -0.453125 2.671875q0 0.640625 0.359375 0.984375q0.375 0.34375 1.21875 0.34375q1.203125 0 2.140625 -0.234375zm9.779175 -26.906246q3.171875 6.875 3.171875 14.125q0 4.875 -1.28125 9.046871q-1.265625 4.15625 -3.875 8.25q-1.734375 2.71875 -5.5 7.046875l-2.828125 0q2.328125 -2.515625 4.953125 -7.0625q2.625 -4.546875 3.796875 -8.921875q1.171875 -4.374996 1.171875 -8.812496q0 -6.609375 -2.3125 -13.671875l2.703125 0z" fill-rule="nonzero"></path><path fill="#000000" fill-opacity="0.0" d="m178.79134 10.971128l122.110245 0l0 66.74016l-122.110245 0z" fill-rule="evenodd"></path><path fill="#000000" d="m187.72884 59.651127l9.25 -10.796875l-5.296875 -10.46875l4.0 0l1.796875 3.78125q1.0 2.125 1.796875 4.078125l6.140625 -7.859375l4.421875 0l-8.9375 10.75l5.375 10.515625l-4.015625 0l-2.109375 -4.328125q-0.6875 -1.375 -1.546875 -3.421875l-6.328125 7.75l-4.546875 0zm27.335938 8.624996q-3.140625 -6.890621 -3.140625 -14.156246q0 -4.84375 1.265625 -9.015625q1.265625 -4.171875 3.875 -8.25q1.71875 -2.734375 5.5 -7.046877l2.828125 0q-2.34375 2.500002 -4.953125 7.046877q-2.609375 4.53125 -3.796875 8.921875q-1.1875 4.390625 -1.1875 8.8125q0 6.609375 2.3125 13.687496l-2.703125 0zm16.981339 -11.562496l-0.59375 2.953125q-1.3125 0.34375 -2.53125 0.34375q-2.15625 0 -3.4375 -1.0625q-0.96875 -0.796875 -0.96875 -2.1875q0 -0.6875 0.53125 -3.21875l2.578125 -12.34375l-2.859375 0l0.578125 -2.8125l2.859375 0l1.109375 -5.21875l4.140625 -2.500002l-1.625 7.718752l3.5625 0l-0.59375 2.8125l-3.546875 0l-2.46875 11.75q-0.453125 2.234375 -0.453125 2.671875q0 0.640625 0.359375 0.984375q0.375 0.34375 1.21875 0.34375q1.203125 0 2.140625 -0.234375zm9.77916 -26.906252q3.171875 6.875002 3.171875 14.125002q0 4.875 -1.28125 9.046875q-1.265625 4.15625 -3.875 8.25q-1.734375 2.71875 -5.5 7.046871l-2.828125 0q2.328125 -2.515625 4.953125 -7.062496q2.625 -4.546875 3.796875 -8.921875q1.171875 -4.375 1.171875 -8.8125q0 -6.609375 -2.3125 -13.671877l2.703125 0z" fill-rule="nonzero"></path><path fill="#ffffff" d="m744.9884 107.56431l0 0c0 -16.25544 11.661743 -29.433075 26.047241 -29.433075l0 0c6.908142 0 13.533386 3.100975 18.418152 8.62075c4.8848267 5.5197678 7.6290894 13.006187 7.6290894 20.812325l0 0c0 16.255432 -11.661743 29.433067 -26.047241 29.433067l0 0c-14.385498 0 -26.047241 -13.177635 -26.047241 -29.433067z" fill-rule="evenodd"></path><path stroke="#000000" stroke-width="2.0" stroke-linejoin="round" stroke-linecap="butt" d="m744.9884 107.56431l0 0c0 -16.25544 11.661743 -29.433075 26.047241 -29.433075l0 0c6.908142 0 13.533386 3.100975 18.418152 8.62075c4.8848267 5.5197678 7.6290894 13.006187 7.6290894 20.812325l0 0c0 16.255432 -11.661743 29.433067 -26.047241 29.433067l0 0c-14.385498 0 -26.047241 -13.177635 -26.047241 -29.433067z" fill-rule="evenodd"></path><path fill="#000000" d="m769.63306 115.58118l0 -6.28125l-6.234375 0l0 -2.625l6.234375 0l0 -6.234375l2.65625 0l0 6.234375l6.234375 0l0 2.625l-6.234375 0l0 6.28125l-2.65625 0z" fill-rule="nonzero"></path><path fill="#ffffff" d="m87.244095 438.36484l89.00787 0l0 63.18109l-89.00787 0z" fill-rule="evenodd"></path><path stroke="#000000" stroke-width="2.0" stroke-linejoin="round" stroke-linecap="butt" d="m87.244095 438.36484l89.00787 0l0 63.18109l-89.00787 0z" fill-rule="evenodd"></path><path fill="#000000" d="m107.41991 488.03476l4.796875 -22.953125l2.609375 0l-0.484375 2.3125q1.453125 -1.515625 2.59375 -2.09375q1.15625 -0.59375 2.4375 -0.59375q2.375 0 3.9375 1.734375q1.5625 1.71875 1.5625 4.9375q0 2.59375 -0.859375 4.734375q-0.859375 2.125 -2.109375 3.421875q-1.25 1.296875 -2.53125 1.90625q-1.28125 0.609375 -2.625 0.609375q-2.984375 0 -4.625 -3.03125l-1.875 9.015625l-2.828125 0zm5.59375 -13.140625q0 1.859375 0.265625 2.578125q0.390625 1.015625 1.28125 1.640625q0.890625 0.625 2.0625 0.625q2.4375 0 3.9375 -2.734375q1.5 -2.75 1.5 -5.609375q0 -2.109375 -1.015625 -3.25q-1.0 -1.15625 -2.5 -1.15625q-1.078125 0 -2.0 0.578125q-0.921875 0.5625 -1.71875 1.703125q-0.78125 1.125 -1.296875 2.765625q-0.515625 1.640625 -0.515625 2.859375zm17.6875 13.515625q-2.453125 -5.375 -2.453125 -11.046875q0 -3.78125 0.984375 -7.03125q1.0 -3.265625 3.03125 -6.453125q1.34375 -2.125 4.296875 -5.5l2.203125 0q-1.828125 1.953125 -3.875 5.5q-2.03125 3.546875 -2.953125 6.96875q-0.921875 3.421875 -0.921875 6.875q0 5.15625 1.796875 10.6875l-2.109375 0zm13.171875 -9.03125l-0.46875 2.3125q-1.015625 0.265625 -1.96875 0.265625q-1.6875 0 -2.6875 -0.828125q-0.75 -0.625 -0.75 -1.703125q0 -0.546875 0.40625 -2.515625l2.015625 -9.640625l-2.234375 0l0.453125 -2.1875l2.234375 0l0.859375 -4.078125l3.234375 -1.953125l-1.265625 6.03125l2.78125 0l-0.46875 2.1875l-2.765625 0l-1.921875 9.171875q-0.359375 1.75 -0.359375 2.09375q0 0.5 0.28125 0.765625q0.296875 0.265625 0.953125 0.265625q0.9375 0 1.671875 -0.1875zm7.5625 -21.0q2.46875 5.375 2.46875 11.03125q0 3.796875 -1.0 7.046875q-0.984375 3.25 -3.015625 6.453125q-1.359375 2.125 -4.296875 5.5l-2.203125 0q1.8125 -1.96875 3.859375 -5.515625q2.046875 -3.546875 2.953125 -6.953125q0.921875 -3.421875 0.921875 -6.890625q0 -5.15625 -1.796875 -10.671875l2.109375 0z" fill-rule="nonzero"></path><path fill="#000000" fill-opacity="0.0" d="m0 471.30972l87.244095 -1.3543396" fill-rule="evenodd"></path><path stroke="#000000" stroke-width="2.0" stroke-linejoin="round" stroke-linecap="butt" d="m0 471.30972l75.24554 -1.1680603" fill-rule="evenodd"></path><path fill="#000000" stroke="#000000" stroke-width="2.0" stroke-linecap="butt" d="m75.296814 473.4447l9.023827 -3.4439392l-9.126373 -3.162201z" fill-rule="evenodd"></path><path fill="#ffffff" d="m207.61942 434.2454l113.38583 0l0 71.433075l-113.38583 0z" fill-rule="evenodd"></path><path stroke="#000000" stroke-width="2.0" stroke-linejoin="round" stroke-linecap="butt" d="m207.61942 434.2454l113.38583 0l0 71.433075l-113.38583 0z" fill-rule="evenodd"></path><path fill="#000000" d="m238.41086 476.04132l2.75 0.28125q-0.59375 2.046875 -2.734375 3.890625q-2.125 1.84375 -5.078125 1.84375q-1.84375 0 -3.390625 -0.84375q-1.53125 -0.859375 -2.34375 -2.484375q-0.796875 -1.625 -0.796875 -3.703125q0 -2.71875 1.25 -5.265625q1.265625 -2.5625 3.265625 -3.796875q2.0 -1.25 4.328125 -1.25q2.96875 0 4.734375 1.84375q1.78125 1.84375 1.78125 5.03125q0 1.21875 -0.21875 2.5l-12.21875 0q-0.0625 0.484375 -0.0625 0.875q0 2.328125 1.0625 3.5625q1.078125 1.21875 2.625 1.21875q1.453125 0 2.859375 -0.953125q1.40625 -0.953125 2.1875 -2.75zm-8.21875 -4.109375l9.3125 0q0.015625 -0.4375 0.015625 -0.625q0 -2.125 -1.0625 -3.25q-1.0625 -1.140625 -2.734375 -1.140625q-1.8125 0 -3.3125 1.25q-1.484375 1.25 -2.21875 3.765625z" fill-rule="nonzero"></path><path fill="#000000" d="m244.19211 469.68195q0.28125 -1.34375 0.78125 -2.25q0.515625 -0.90625 1.359375 -1.71875q0.84375 -0.8125 3.234375 -2.734375q1.453125 -1.15625 2.0 -1.71875q0.765625 -0.796875 1.109375 -1.5625q0.234375 -0.53125 0.234375 -1.140625q0 -1.03125 -0.734375 -1.75q-0.734375 -0.734375 -1.796875 -0.734375q-1.046875 0 -1.84375 0.734375q-0.796875 0.734375 -1.125 2.359375l-1.8125 -0.265625q0.265625 -2.0 1.546875 -3.15625q1.28125 -1.15625 3.203125 -1.15625q1.28125 0 2.3125 0.53125q1.046875 0.53125 1.5625 1.5q0.53125 0.96875 0.53125 1.984375q0 1.5 -1.0625 2.890625q-0.65625 0.859375 -3.859375 3.390625q-1.375 1.078125 -2.046875 1.78125q-0.671875 0.703125 -1.0 1.3125l6.71875 0l-0.359375 1.703125l-8.953125 0zm12.705444 -10.890625l12.890625 0l-0.3125 1.546875l-2.375 0l-1.96875 9.34375l-1.859375 0l1.96875 -9.34375l-4.421875 0l-1.953125 9.34375l-1.859375 0l1.953125 -9.34375l-2.375 0l0.3125 -1.546875zm12.9288025 10.890625l3.140625 -15.03125l1.859375 0l-1.953125 9.3125l5.40625 -5.171875l2.453125 0l-4.640625 4.0625l2.8125 6.828125l-2.03125 0l-2.171875 -5.59375l-2.265625 1.953125l-0.75 3.640625l-1.859375 0zm13.2734375 -12.9375l0.453125 -2.09375l1.828125 0l-0.4375 2.09375l-1.84375 0zm-5.875 17.03125l0.328125 -1.578125q0.640625 0.171875 1.125 0.171875q0.59375 0 0.953125 -0.40625q0.359375 -0.390625 0.734375 -2.171875l2.28125 -11.0l1.859375 0l-2.359375 11.328125q-0.4375 2.125 -1.015625 2.890625q-0.765625 1.03125 -2.140625 1.03125q-0.71875 0 -1.765625 -0.265625zm6.222809 -3.84375l8.078125 -15.53125l1.609375 0l-8.078125 15.53125l-1.609375 0zm11.753754 -0.25l2.78125 -13.3125l-4.9375 0l0.359375 -1.71875l11.84375 0l-0.359375 1.71875l-4.890625 0l-2.78125 13.3125l-2.015625 0z" fill-rule="nonzero"></path><path fill="#000000" fill-opacity="0.0" d="m176.25197 469.95538l31.370071 0" fill-rule="evenodd"></path><path stroke="#000000" stroke-width="2.0" stroke-linejoin="round" stroke-linecap="butt" d="m176.25197 469.95538l19.370071 0" fill-rule="evenodd"></path><path fill="#000000" stroke="#000000" stroke-width="2.0" stroke-linecap="butt" d="m195.62206 473.25885l9.076187 -3.3034668l-9.076187 -3.3034668z" fill-rule="evenodd"></path><path fill="#000000" fill-opacity="0.0" d="m264.32022 337.00262l0 -87.33858" fill-rule="evenodd"></path><path stroke="#000000" stroke-width="2.0" stroke-linejoin="round" stroke-linecap="butt" d="m264.32022 337.00262l0 -75.33859" fill-rule="evenodd"></path><path fill="#000000" stroke="#000000" stroke-width="2.0" stroke-linecap="butt" d="m267.6237 261.66403l-3.3034668 -9.076187l-3.3034668 9.076187z" fill-rule="evenodd"></path><path fill="#000000" fill-opacity="0.0" d="m264.31235 434.2454l0 -80.566925" fill-rule="evenodd"></path><path stroke="#000000" stroke-width="2.0" stroke-linejoin="round" stroke-linecap="butt" d="m264.31235 434.2454l0 -68.566925" fill-rule="evenodd"></path><path fill="#000000" stroke="#000000" stroke-width="2.0" stroke-linecap="butt" d="m267.6158 365.67847l-3.3034668 -9.076172l-3.3034668 9.076172z" fill-rule="evenodd"></path><path fill="#000000" fill-opacity="0.0" d="m239.1787 363.44357l50.267715 -19.937012" fill-rule="evenodd"></path><path stroke="#000000" stroke-width="2.0" stroke-linejoin="round" stroke-linecap="butt" d="m239.1787 363.44357l50.267715 -19.937012" fill-rule="evenodd"></path><path fill="#000000" fill-opacity="0.0" d="m239.1787 347.44357l50.267715 -19.937012" fill-rule="evenodd"></path><path stroke="#000000" stroke-width="2.0" stroke-linejoin="round" stroke-linecap="butt" d="m239.1787 347.44357l50.267715 -19.937012" fill-rule="evenodd"></path><path fill="#000000" fill-opacity="0.0" d="m10.847769 306.81104l52.09449 0l0 135.05511l-52.09449 0z" fill-rule="evenodd"></path><path fill="#000000" d="m22.207144 339.0186l0.859375 -4.109375l4.109375 0l-0.875 4.109375l-4.09375 0z" fill-rule="nonzero"></path><path fill="#000000" d="m22.207144 389.0186l0.859375 -4.109375l4.109375 0l-0.875 4.109375l-4.09375 0z" fill-rule="nonzero"></path><path fill="#000000" d="m22.207144 439.0186l0.859375 -4.109375l4.109375 0l-0.875 4.109375l-4.09375 0z" fill-rule="nonzero"></path><path fill="#000000" fill-opacity="0.0" d="m10.845144 247.15749l122.11024 0l0 66.74016l-122.11024 0z" fill-rule="evenodd"></path><path fill="#000000" d="m19.782644 295.8375l9.25 -10.796875l-5.296875 -10.46875l4.0 0l1.796875 3.78125q1.0 2.125 1.796875 4.078125l6.140627 -7.859375l4.421875 0l-8.9375 10.75l5.375 10.515625l-4.015625 0l-2.109375 -4.328125q-0.6875019 -1.375 -1.5468769 -3.421875l-6.328125 7.75l-4.546875 0z" fill-rule="nonzero"></path><path fill="#000000" d="m42.149834 311.33746q0.390625 -1.796875 1.0625 -3.0q0.671875 -1.21875 1.796875 -2.296875q1.125 -1.09375 4.3125 -3.640625q1.953125 -1.546875 2.65625 -2.28125q1.03125 -1.078125 1.5 -2.09375q0.3125 -0.703125 0.3125 -1.515625q0 -1.390625 -0.984375 -2.34375q-0.96875 -0.96875 -2.390625 -0.96875q-1.421875 0 -2.46875 0.984375q-1.046875 0.96875 -1.5 3.125l-2.421875 -0.359375q0.359375 -2.65625 2.0625 -4.1875q1.71875 -1.546875 4.28125 -1.546875q1.703125 0 3.09375 0.71875q1.390625 0.703125 2.078125 1.984375q0.703125 1.28125 0.703125 2.65625q0 2.0 -1.421875 3.84375q-0.875 1.140625 -5.140625 4.515625q-1.828125 1.453125 -2.734375 2.390625q-0.890625 0.921875 -1.34375 1.75l8.96875 0l-0.46875 2.265625l-11.953125 0z" fill-rule="nonzero"></path><path fill="#000000" d="m56.0951 303.86874l7.703125 -37.375l8.0625 0l-0.578125 2.78125l-4.375 0l-6.65625 31.8125l4.421875 0l-0.578125 2.78125l-8.0 0zm12.576035 -8.03125l4.453125 -21.265625l3.28125 0l-0.78125 3.703125q2.140625 -2.171875 4.0 -3.171875q1.859375 -1.0 3.796875 -1.0q2.59375 0 4.0625 1.40625q1.46875 1.390625 1.46875 3.734375q0 1.171875 -0.515625 3.71875l-2.703125 12.875l-3.625 0l2.828125 -13.46875q0.40625 -1.96875 0.40625 -2.90625q0 -1.0625 -0.734375 -1.71875q-0.71875 -0.671875 -2.109375 -0.671875q-2.78125 0 -4.953125 2.015625q-2.171875 2.0 -3.1875 6.859375l-2.0625 9.890625l-3.625 0zm27.234741 8.03125l-8.015625 0l0.578125 -2.78125l4.4375 0l6.640625 -31.8125l-4.40625 0l0.578125 -2.78125l8.078125 0l-7.890625 37.375z" fill-rule="nonzero"></path><path fill="#000000" fill-opacity="0.0" d="m10.845144 505.67978l122.11024 0l0 66.74014l-122.11024 0z" fill-rule="evenodd"></path><path fill="#000000" d="m19.782644 554.3598l9.25 -10.796875l-5.296875 -10.46875l4.0 0l1.796875 3.78125q1.0 2.125 1.796875 4.078125l6.140627 -7.859375l4.421875 0l-8.9375 10.75l5.375 10.515625l-4.015625 0l-2.109375 -4.328125q-0.6875019 -1.375 -1.5468769 -3.421875l-6.328125 7.75l-4.546875 0z" fill-rule="nonzero"></path><path fill="#000000" d="m41.462334 569.8598l4.203125 -20.046875l2.453125 0l-2.59375 12.4375l7.21875 -6.90625l3.265625 0l-6.1875 5.40625l3.75 9.109375l-2.71875 0l-2.890625 -7.453125l-3.015625 2.59375l-1.0 4.859375l-2.484375 0z" fill-rule="nonzero"></path><path fill="#000000" d="m54.54827 562.39105l7.703125 -37.375l8.0625 0l-0.578125 2.78125l-4.375 0l-6.65625 31.8125l4.421875 0l-0.578125 2.78125l-8.0 0zm12.576035 -8.03125l4.453125 -21.265625l3.28125 0l-0.78125 3.703125q2.140625 -2.171875 4.0 -3.171875q1.859375 -1.0 3.796875 -1.0q2.59375 0 4.0625 1.40625q1.46875 1.390625 1.46875 3.734375q0 1.171875 -0.515625 3.71875l-2.703125 12.875l-3.625 0l2.828125 -13.46875q0.40625 -1.96875 0.40625 -2.90625q0 -1.0625 -0.734375 -1.71875q-0.71875 -0.671875 -2.109375 -0.671875q-2.78125 0 -4.953125 2.015625q-2.171875 2.0 -3.1875 6.859375l-2.0625 9.890625l-3.625 0zm27.234741 8.03125l-8.015625 0l0.578125 -2.78125l4.4375 0l6.640625 -31.8125l-4.40625 0l0.578125 -2.78125l8.078125 0l-7.890625 37.375z" fill-rule="nonzero"></path><path fill="#000000" fill-opacity="0.0" d="m1085.9238 10.971128l122.11035 0l0 66.74016l-122.11035 0z" fill-rule="evenodd"></path><path fill="#000000" d="m1094.9238 67.85425l0.21875 -3.390625q1.125 0.3125 2.1875 0.3125q1.09375 0 1.78125 -0.5q0.875 -0.6562462 1.921875 -2.4843712l1.15625 -2.078125l-3.546875 -21.328125l3.5625 0l1.609375 10.75q0.484375 3.1875 0.8125 6.375l9.515625 -17.125l3.78125 0l-13.546875 24.09375q-1.96875 3.5156212 -3.5 4.656246q-1.515625 1.140625 -3.484375 1.140625q-1.265625 0 -2.46875 -0.421875z" fill-rule="nonzero"></path><path fill="#000000" d="m1122.3223 75.15112l3.171875 -15.140625q-2.046875 1.625 -5.765625 2.59375l0.46875 -2.25q1.84375 -0.734375 3.640625 -1.921875q1.796875 -1.1875 2.703125 -2.078125q0.546875 -0.546875 1.03125 -1.328125l1.4375 0l-4.1875 20.125l-2.5 0z" fill-rule="nonzero"></path><path fill="#000000" d="m1131.1738 67.68237l7.703125 -37.375l8.0625 0l-0.578125 2.781252l-4.375 0l-6.65625 31.812496l4.421875 0l-0.578125 2.78125l-8.0 0zm12.57605 -8.031246l4.453125 -21.265625l3.28125 0l-0.78125 3.703125q2.140625 -2.171875 4.0 -3.171875q1.859375 -1.0 3.796875 -1.0q2.59375 0 4.0625 1.40625q1.46875 1.390625 1.46875 3.734375q0 1.171875 -0.515625 3.71875l-2.703125 12.875l-3.625 0l2.828125 -13.46875q0.40625 -1.96875 0.40625 -2.90625q0 -1.0625 -0.734375 -1.71875q-0.71875 -0.671875 -2.109375 -0.671875q-2.78125 0 -4.953125 2.015625q-2.171875 2.0 -3.1875 6.859375l-2.0625 9.890625l-3.625 0zm27.234741 8.031246l-8.015625 0l0.578125 -2.78125l4.4375 0l6.640625 -31.812496l-4.40625 0l0.578125 -2.781252l8.078125 0l-7.890625 37.375z" fill-rule="nonzero"></path><path fill="#000000" fill-opacity="0.0" d="m1074.3544 249.12335l-44.37805 0" fill-rule="evenodd"></path><path stroke="#000000" stroke-width="2.0" stroke-linejoin="round" stroke-linecap="butt" d="m1074.3544 249.12335l-44.37805 0" fill-rule="evenodd"></path><path fill="#ffffff" d="m954.5381 214.9029l89.00781 0l0 63.18109l-89.00781 0z" fill-rule="evenodd"></path><path stroke="#000000" stroke-width="2.0" stroke-linejoin="round" stroke-linecap="butt" d="m954.5381 214.9029l89.00781 0l0 63.18109l-89.00781 0z" fill-rule="evenodd"></path><path fill="#000000" d="m977.91583 241.24469l-1.171875 2.734375q-2.0625 0.421875 -3.34375 2.59375q-1.265625 2.171875 -1.265625 4.671875q0 1.984375 1.109375 3.25q1.109375 1.265625 2.8125 1.625l1.640625 -7.71875q0.5625 -2.671875 1.15625 -4.0625q0.59375 -1.390625 1.6875 -2.234375q1.109375 -0.859375 2.484375 -0.859375q1.984375 0 3.5 1.75q1.53125 1.734375 1.53125 4.859375q0 3.140625 -1.5 5.71875q-1.5 2.578125 -3.375 3.671875q-1.859375 1.078125 -4.84375 1.34375l-1.234375 5.984375l-2.828125 0l1.234375 -5.984375q-2.96875 -0.4375 -4.59375 -2.59375q-1.609375 -2.15625 -1.609375 -5.046875q0 -3.703125 2.4375 -6.65625q2.453125 -2.96875 6.171875 -3.046875zm0.9375 14.859375q3.109375 -0.421875 4.8125 -2.953125q1.703125 -2.53125 1.703125 -5.671875q0 -1.921875 -0.609375 -2.90625q-0.59375 -1.0 -1.578125 -1.0q-1.0 0 -1.53125 0.96875q-0.53125 0.96875 -1.109375 3.71875l-1.6875 7.84375z" fill-rule="nonzero"></path><path fill="#000000" d="m989.68146 270.21344q0.28125 -1.34375 0.78125 -2.25q0.515625 -0.90625 1.359375 -1.71875q0.84375 -0.8125 3.234375 -2.734375q1.453125 -1.15625 2.0 -1.71875q0.765625 -0.796875 1.109375 -1.5625q0.234375 -0.53125 0.234375 -1.140625q0 -1.03125 -0.734375 -1.75q-0.734375 -0.734375 -1.796875 -0.734375q-1.046875 0 -1.84375 0.734375q-0.796875 0.734375 -1.125 2.359375l-1.8125 -0.265625q0.265625 -2.0 1.546875 -3.15625q1.28125 -1.15625 3.203125 -1.15625q1.28125 0 2.3125 0.53125q1.046875 0.53125 1.5625 1.5q0.53125 0.96875 0.53125 1.984375q0 1.5 -1.0625 2.890625q-0.65625 0.859375 -3.859375 3.390625q-1.375 1.078125 -2.046875 1.78125q-0.671875 0.703125 -1.0 1.3125l6.71875 0l-0.359375 1.703125l-8.953125 0z" fill-rule="nonzero"></path><path fill="#000000" d="m1005.465 264.9478q-2.453125 -5.375 -2.453125 -11.046875q0 -3.78125 0.984375 -7.03125q1.0 -3.265625 3.03125 -6.453125q1.34375 -2.125 4.296875 -5.5l2.203125 0q-1.828125 1.953125 -3.875 5.5q-2.03125 3.546875 -2.953125 6.96875q-0.921875 3.421875 -0.921875 6.875q0 5.15625 1.796875 10.6875l-2.109375 0zm13.171875 -9.03125l-0.46875 2.3125q-1.015625 0.265625 -1.96875 0.265625q-1.6875 0 -2.6875 -0.828125q-0.75 -0.625 -0.75 -1.703125q0 -0.546875 0.40625 -2.515625l2.015625 -9.640625l-2.234375 0l0.453125 -2.1875l2.234375 0l0.859375 -4.078125l3.234375 -1.953125l-1.265625 6.03125l2.78125 0l-0.46875 2.1875l-2.765625 0l-1.921875 9.171875q-0.359375 1.75 -0.359375 2.09375q0 0.5 0.28125 0.765625q0.296875 0.265625 0.953125 0.265625q0.9375 0 1.671875 -0.1875zm7.562561 -21.0q2.46875 5.375 2.46875 11.03125q0 3.796875 -1.0 7.046875q-0.984375 3.25 -3.015625 6.453125q-1.359436 2.125 -4.296936 5.5l-2.203125 0q1.8125 -1.96875 3.859375 -5.515625q2.046936 -3.546875 2.953186 -6.953125q0.921875 -3.421875 0.921875 -6.890625q0 -5.15625 -1.796875 -10.671875l2.109375 0z" fill-rule="nonzero"></path><path fill="#000000" fill-opacity="0.0" d="m1074.3464 248.21523l32.944946 -32.031494" fill-rule="evenodd"></path><path stroke="#000000" stroke-width="2.0" stroke-linejoin="round" stroke-linecap="butt" d="m1074.3464 248.21523l24.341187 -23.66632" fill-rule="evenodd"></path><path fill="#000000" stroke="#000000" stroke-width="2.0" stroke-linecap="butt" d="m1100.9905 226.9174l4.20459 -8.695496l-8.810303 3.958496z" fill-rule="evenodd"></path><path fill="#000000" fill-opacity="0.0" d="m1116.1837 248.21523l94.36218 -0.881897" fill-rule="evenodd"></path><path stroke="#000000" stroke-width="2.0" stroke-linejoin="round" stroke-linecap="butt" d="m1116.1837 248.21523l82.36267 -0.7697449" fill-rule="evenodd"></path><path fill="#000000" stroke="#000000" stroke-width="2.0" stroke-linecap="butt" d="m1198.5773 250.7488l9.045044 -3.3881378l-9.106689 -3.2185059z" fill-rule="evenodd"></path><path fill="#000000" fill-opacity="0.0" d="m1052.4987 241.55905l122.11023 0l0 35.149597l-122.11023 0z" fill-rule="evenodd"></path><path fill="#000000" d="m1067.4987 273.08218l-0.375 1.8125q-0.796875 0.203125 -1.53125 0.203125q-1.328125 0 -2.109375 -0.640625q-0.578125 -0.5 -0.578125 -1.34375q0 -0.421875 0.3125 -1.953125l1.578125 -7.53125l-1.75 0l0.359375 -1.71875l1.75 0l0.671875 -3.1875l2.515625 -1.515625l-0.984375 4.703125l2.171875 0l-0.359375 1.71875l-2.171875 0l-1.5 7.15625q-0.28125 1.375 -0.28125 1.640625q0 0.390625 0.21875 0.609375q0.234375 0.203125 0.75 0.203125q0.734375 0 1.3125 -0.15625zm22.136475 -8.71875l-11.8125 0l0 -2.0625l11.8125 0l0 2.0625zm0 5.421875l-11.8125 0l0 -2.046875l11.8125 0l0 2.046875zm8.593872 5.09375l2.71875 -12.96875l2.0 0l-0.484375 2.265625q1.3125 -1.328125 2.4375 -1.9375q1.140625 -0.609375 2.328125 -0.609375q1.578125 0 2.46875 0.859375q0.90625 0.84375 0.90625 2.265625q0 0.71875 -0.328125 2.28125l-1.640625 7.84375l-2.21875 0l1.734375 -8.21875q0.25 -1.1875 0.25 -1.765625q0 -0.640625 -0.453125 -1.046875q-0.4375 -0.40625 -1.28125 -0.40625q-1.703125 0 -3.03125 1.21875q-1.3125 1.21875 -1.9375 4.1875l-1.25 6.03125l-2.21875 0zm14.117554 0l3.75 -17.890625l2.1875 0l-2.3125 11.09375l6.4375 -6.171875l2.921875 0l-5.53125 4.84375l3.34375 8.125l-2.421875 0l-2.578125 -6.65625l-2.6875 2.328125l-0.90625 4.328125l-2.203125 0zm10.5390625 0.296875l9.609375 -18.5l1.921875 0l-9.625 18.5l-1.90625 0zm13.974365 -0.296875l3.3125 -15.859375l-5.875 0l0.4375 -2.03125l14.078125 0l-0.421875 2.03125l-5.828125 0l-3.3125 15.859375l-2.390625 0z" fill-rule="nonzero"></path><path fill="#000000" fill-opacity="0.0" d="m1085.9238 151.1811l122.11035 0l0 66.74016l-122.11035 0z" fill-rule="evenodd"></path><path fill="#000000" d="m1094.9238 208.06422l0.21875 -3.390625q1.125 0.3125 2.1875 0.3125q1.09375 0 1.78125 -0.5q0.875 -0.65625 1.921875 -2.484375l1.15625 -2.078125l-3.546875 -21.328125l3.5625 0l1.609375 10.75q0.484375 3.1875 0.8125 6.375l9.515625 -17.125l3.78125 0l-13.546875 24.09375q-1.96875 3.515625 -3.5 4.65625q-1.515625 1.140625 -3.484375 1.140625q-1.265625 0 -2.46875 -0.421875z" fill-rule="nonzero"></path><path fill="#000000" d="m1117.2285 215.3611q0.390625 -1.796875 1.0625 -3.0q0.671875 -1.21875 1.796875 -2.296875q1.125 -1.09375 4.3125 -3.640625q1.953125 -1.546875 2.65625 -2.28125q1.03125 -1.078125 1.5 -2.09375q0.3125 -0.703125 0.3125 -1.515625q0 -1.390625 -0.984375 -2.34375q-0.96875 -0.96875 -2.390625 -0.96875q-1.421875 0 -2.46875 0.984375q-1.046875 0.96875 -1.5 3.125l-2.421875 -0.359375q0.359375 -2.65625 2.0625 -4.1875q1.71875 -1.546875 4.28125 -1.546875q1.703125 0 3.09375 0.71875q1.390625 0.703125 2.078125 1.984375q0.703125 1.28125 0.703125 2.65625q0 2.0 -1.421875 3.84375q-0.875 1.140625 -5.140625 4.515625q-1.828125 1.453125 -2.734375 2.390625q-0.890625 0.921875 -1.34375 1.75l8.96875 0l-0.46875 2.265625l-11.953125 0z" fill-rule="nonzero"></path><path fill="#000000" d="m1131.1738 207.89235l7.703125 -37.375l8.0625 0l-0.578125 2.78125l-4.375 0l-6.65625 31.8125l4.421875 0l-0.578125 2.78125l-8.0 0zm12.57605 -8.03125l4.453125 -21.265625l3.28125 0l-0.78125 3.703125q2.140625 -2.171875 4.0 -3.171875q1.859375 -1.0 3.796875 -1.0q2.59375 0 4.0625 1.40625q1.46875 1.390625 1.46875 3.734375q0 1.171875 -0.515625 3.71875l-2.703125 12.875l-3.625 0l2.828125 -13.46875q0.40625 -1.96875 0.40625 -2.90625q0 -1.0625 -0.734375 -1.71875q-0.71875 -0.671875 -2.109375 -0.671875q-2.78125 0 -4.953125 2.015625q-2.171875 2.0 -3.1875 6.859375l-2.0625 9.890625l-3.625 0zm27.234741 8.03125l-8.015625 0l0.578125 -2.78125l4.4375 0l6.640625 -31.8125l-4.40625 0l0.578125 -2.78125l8.078125 0l-7.890625 37.375z" fill-rule="nonzero"></path><path fill="#000000" fill-opacity="0.0" d="m1074.3544 504.4462l-44.37805 0" fill-rule="evenodd"></path><path stroke="#000000" stroke-width="2.0" stroke-linejoin="round" stroke-linecap="butt" d="m1074.3544 504.4462l-44.37805 0" fill-rule="evenodd"></path><path fill="#ffffff" d="m954.5381 470.2257l89.00781 0l0 63.18109l-89.00781 0z" fill-rule="evenodd"></path><path stroke="#000000" stroke-width="2.0" stroke-linejoin="round" stroke-linecap="butt" d="m954.5381 470.2257l89.00781 0l0 63.18109l-89.00781 0z" fill-rule="evenodd"></path><path fill="#000000" d="m981.4775 496.56754l-1.171875 2.734375q-2.0625 0.421875 -3.34375 2.59375q-1.265625 2.171875 -1.265625 4.671875q0 1.984375 1.109375 3.25q1.109375 1.265625 2.8125 1.625l1.640625 -7.71875q0.5625 -2.671875 1.15625 -4.0625q0.59375 -1.390625 1.6875 -2.234375q1.109375 -0.859375 2.484375 -0.859375q1.984375 0 3.5 1.75q1.53125 1.734375 1.53125 4.859375q0 3.140625 -1.5 5.71875q-1.5 2.578125 -3.375 3.6718445q-1.859375 1.078125 -4.84375 1.34375l-1.234375 5.984375l-2.828125 0l1.234375 -5.984375q-2.96875 -0.4375 -4.59375 -2.5937195q-1.609375 -2.15625 -1.609375 -5.046875q0 -3.703125 2.4375 -6.65625q2.453125 -2.96875 6.171875 -3.046875zm0.9375 14.859375q3.109375 -0.421875 4.8125 -2.953125q1.703125 -2.53125 1.703125 -5.671875q0 -1.921875 -0.609375 -2.90625q-0.59375 -1.0 -1.578125 -1.0q-1.0 0 -1.53125 0.96875q-0.53125 0.96875 -1.109375 3.71875l-1.6875 7.84375z" fill-rule="nonzero"></path><path fill="#000000" d="m992.5556 525.53625l3.140625 -15.0312195l1.859375 0l-3.140625 15.0312195l-1.859375 0z" fill-rule="nonzero"></path><path fill="#000000" d="m1001.9034 520.2706q-2.453125 -5.375 -2.453125 -11.0468445q0 -3.78125 0.984375 -7.03125q1.0 -3.265625 3.03125 -6.453125q1.34375 -2.125 4.296875 -5.5l2.203125 0q-1.828125 1.953125 -3.875 5.5q-2.03125 3.546875 -2.953125 6.96875q-0.921875 3.421875 -0.921875 6.875q0 5.1562195 1.796875 10.6874695l-2.109375 0zm13.171875 -9.0312195l-0.46875 2.3124695q-1.015625 0.265625 -1.96875 0.265625q-1.6875 0 -2.6875 -0.828125q-0.75 -0.625 -0.75 -1.7030945q0 -0.546875 0.40625 -2.515625l2.015625 -9.640625l-2.234375 0l0.453125 -2.1875l2.234375 0l0.859375 -4.078125l3.234375 -1.953125l-1.265625 6.03125l2.78125 0l-0.46875 2.1875l-2.765625 0l-1.921875 9.171875q-0.359375 1.75 -0.359375 2.09375q0 0.5 0.28125 0.765625q0.296875 0.265625 0.953125 0.265625q0.9375 0 1.671875 -0.1875zm7.5625 -21.0q2.468811 5.375 2.468811 11.03125q0 3.796875 -1.0 7.046875q-0.98443604 3.25 -3.015686 6.4530945q-1.359375 2.125 -4.296875 5.5l-2.203125 0q1.8125 -1.96875 3.859375 -5.515625q2.046875 -3.5468445 2.953125 -6.9530945q0.921875 -3.421875 0.921875 -6.890625q0 -5.15625 -1.796875 -10.671875l2.109375 0z" fill-rule="nonzero"></path><path fill="#000000" fill-opacity="0.0" d="m1074.3464 503.53806l32.944946 -32.031494" fill-rule="evenodd"></path><path stroke="#000000" stroke-width="2.0" stroke-linejoin="round" stroke-linecap="butt" d="m1074.3464 503.53806l24.341187 -23.666351" fill-rule="evenodd"></path><path fill="#000000" stroke="#000000" stroke-width="2.0" stroke-linecap="butt" d="m1100.9905 482.24023l4.20459 -8.695496l-8.810303 3.958496z" fill-rule="evenodd"></path><path fill="#000000" fill-opacity="0.0" d="m1116.1837 503.53806l94.36218 -0.881897" fill-rule="evenodd"></path><path stroke="#000000" stroke-width="2.0" stroke-linejoin="round" stroke-linecap="butt" d="m1116.1837 503.53806l82.36267 -0.76971436" fill-rule="evenodd"></path><path fill="#000000" stroke="#000000" stroke-width="2.0" stroke-linecap="butt" d="m1198.5773 506.07162l9.045044 -3.3881226l-9.106689 -3.2185059z" fill-rule="evenodd"></path><path fill="#000000" fill-opacity="0.0" d="m1052.4987 496.8819l122.11023 0l0 35.149597l-122.11023 0z" fill-rule="evenodd"></path><path fill="#000000" d="m1067.4987 528.405l-0.375 1.8125q-0.796875 0.203125 -1.53125 0.203125q-1.328125 0 -2.109375 -0.640625q-0.578125 -0.5 -0.578125 -1.34375q0 -0.421875 0.3125 -1.953125l1.578125 -7.53125l-1.75 0l0.359375 -1.71875l1.75 0l0.671875 -3.1875l2.515625 -1.515625l-0.984375 4.703125l2.171875 0l-0.359375 1.71875l-2.171875 0l-1.5 7.15625q-0.28125 1.375 -0.28125 1.640625q0 0.390625 0.21875 0.609375q0.234375 0.203125 0.75 0.203125q0.734375 0 1.3125 -0.15625zm22.136475 -8.71875l-11.8125 0l0 -2.0625l11.8125 0l0 2.0625zm0 5.421875l-11.8125 0l0 -2.046875l11.8125 0l0 2.046875zm8.593872 5.09375l2.71875 -12.96875l2.0 0l-0.484375 2.265625q1.3125 -1.328125 2.4375 -1.9375q1.140625 -0.609375 2.328125 -0.609375q1.578125 0 2.46875 0.859375q0.90625 0.84375 0.90625 2.265625q0 0.71875 -0.328125 2.28125l-1.640625 7.84375l-2.21875 0l1.734375 -8.21875q0.25 -1.1875 0.25 -1.765625q0 -0.640625 -0.453125 -1.046875q-0.4375 -0.40625 -1.28125 -0.40625q-1.703125 0 -3.03125 1.21875q-1.3125 1.21875 -1.9375 4.1875l-1.25 6.03125l-2.21875 0zm14.117554 0l3.75 -17.890625l2.1875 0l-2.3125 11.09375l6.4375 -6.171875l2.921875 0l-5.53125 4.84375l3.34375 8.125l-2.421875 0l-2.578125 -6.65625l-2.6875 2.328125l-0.90625 4.328125l-2.203125 0zm10.5390625 0.296875l9.609375 -18.5l1.921875 0l-9.625 18.5l-1.90625 0zm13.974365 -0.296875l3.3125 -15.859375l-5.875 0l0.4375 -2.03125l14.078125 0l-0.421875 2.03125l-5.828125 0l-3.3125 15.859375l-2.390625 0z" fill-rule="nonzero"></path><path fill="#000000" fill-opacity="0.0" d="m1085.9238 406.50394l122.11035 0l0 66.74014l-122.11035 0z" fill-rule="evenodd"></path><path fill="#000000" d="m1094.9238 463.38705l0.21875 -3.390625q1.125 0.3125 2.1875 0.3125q1.09375 0 1.78125 -0.5q0.875 -0.65625 1.921875 -2.484375l1.15625 -2.078125l-3.546875 -21.328125l3.5625 0l1.609375 10.75q0.484375 3.1875 0.8125 6.375l9.515625 -17.125l3.78125 0l-13.546875 24.09375q-1.96875 3.515625 -3.5 4.65625q-1.515625 1.140625 -3.484375 1.140625q-1.265625 0 -2.46875 -0.421875z" fill-rule="nonzero"></path><path fill="#000000" d="m1116.3223 470.68393l4.1875 -20.046875l2.46875 0l-4.171875 20.046875l-2.484375 0z" fill-rule="nonzero"></path><path fill="#000000" d="m1121.9736 463.21518l7.703125 -37.375l8.0625 0l-0.578125 2.78125l-4.375 0l-6.65625 31.8125l4.421875 0l-0.578125 2.78125l-8.0 0zm12.57605 -8.03125l4.453125 -21.265625l3.28125 0l-0.78125 3.703125q2.140625 -2.171875 4.0 -3.171875q1.859375 -1.0 3.796875 -1.0q2.59375 0 4.0625 1.40625q1.46875 1.390625 1.46875 3.734375q0 1.171875 -0.515625 3.71875l-2.703125 12.875l-3.625 0l2.828125 -13.46875q0.40625 -1.96875 0.40625 -2.90625q0 -1.0625 -0.734375 -1.71875q-0.71875 -0.671875 -2.109375 -0.671875q-2.78125 0 -4.953125 2.015625q-2.171875 2.0 -3.1875 6.859375l-2.0625 9.890625l-3.625 0zm27.234741 8.03125l-8.015625 0l0.578125 -2.78125l4.4375 0l6.640625 -31.8125l-4.40625 0l0.578125 -2.78125l8.078125 0l-7.890625 37.375z" fill-rule="nonzero"></path><path fill="#000000" fill-opacity="0.0" d="m891.68243 248.3517l62.834656 0" fill-rule="evenodd"></path><path stroke="#000000" stroke-width="2.0" stroke-linejoin="round" stroke-linecap="butt" d="m891.68243 248.3517l50.834656 0" fill-rule="evenodd"></path><path fill="#000000" stroke="#000000" stroke-width="2.0" stroke-linecap="butt" d="m942.5171 251.65517l9.076172 -3.3034668l-9.076172 -3.3034515z" fill-rule="evenodd"></path><path fill="#000000" fill-opacity="0.0" d="m893.8504 504.3517l60.692932 0" fill-rule="evenodd"></path><path stroke="#000000" stroke-width="2.0" stroke-linejoin="round" stroke-linecap="butt" d="m893.8504 504.3517l48.692932 0" fill-rule="evenodd"></path><path fill="#000000" stroke="#000000" stroke-width="2.0" stroke-linecap="butt" d="m942.54333 507.65518l9.076172 -3.3034668l-9.076172 -3.3034668z" fill-rule="evenodd"></path><path fill="#000000" fill-opacity="0.0" d="m867.44904 371.44357l50.2677 -19.937012" fill-rule="evenodd"></path><path stroke="#000000" stroke-width="2.0" stroke-linejoin="round" stroke-linecap="butt" d="m867.44904 371.44357l50.2677 -19.937012" fill-rule="evenodd"></path><path fill="#000000" fill-opacity="0.0" d="m867.44904 355.44357l50.2677 -19.937012" fill-rule="evenodd"></path><path stroke="#000000" stroke-width="2.0" stroke-linejoin="round" stroke-linecap="butt" d="m867.44904 355.44357l50.2677 -19.937012" fill-rule="evenodd"></path><path fill="#000000" fill-opacity="0.0" d="m892.5827 108.115486l0 237.85828" fill-rule="evenodd"></path><path stroke="#000000" stroke-width="2.0" stroke-linejoin="round" stroke-linecap="butt" d="m892.5827 108.115486l0 225.85828" fill-rule="evenodd"></path><path fill="#000000" stroke="#000000" stroke-width="2.0" stroke-linecap="butt" d="m889.27924 333.97375l3.3034668 9.076202l3.3034668 -9.076202z" fill-rule="evenodd"></path><path fill="#000000" fill-opacity="0.0" d="m892.5827 363.03674l0 142.11023" fill-rule="evenodd"></path><path stroke="#000000" stroke-width="2.0" stroke-linejoin="round" stroke-linecap="butt" d="m892.5827 363.03674l0 142.11023" fill-rule="evenodd"></path><path fill="#000000" fill-opacity="0.0" d="m395.94226 92.92913l231.05511 0" fill-rule="evenodd"></path><path stroke="#000000" stroke-width="1.0" stroke-linejoin="round" stroke-linecap="butt" d="m395.94226 92.92913l225.05511 0" fill-rule="evenodd"></path><path fill="#000000" stroke="#000000" stroke-width="1.0" stroke-linecap="butt" d="m620.9974 94.580864l4.538086 -1.6517334l-4.538086 -1.6517258z" fill-rule="evenodd"></path></g></svg>

